mtllib moon_sphere.mtl
o MoonSphere
v 0.000000 1.000000 0.000000
v 0.000000 0.707107 0.707107
v 0.500000 0.707107 0.500000
v 0.707107 0.707107 0.000000
v 0.500000 0.707107 -0.500000
v 0.000000 0.707107 -0.707107
v -0.500000 0.707107 -0.500000
v -0.707107 0.707107 0.000000
v -0.500000 0.707107 0.500000
v 0.000000 0.000000 1.000000
v 0.707107 0.000000 0.707107
v 1.000000 0.000000 0.000000
v 0.707107 0.000000 -0.707107
v 0.000000 0.000000 -1.000000
v -0.707107 0.000000 -0.707107
v -1.000000 0.000000 0.000000
v -0.707107 0.000000 0.707107
v 0.000000 -0.707107 0.707107
v 0.500000 -0.707107 0.500000
v 0.707107 -0.707107 0.000000
v 0.500000 -0.707107 -0.500000
v 0.000000 -0.707107 -0.707107
v -0.500000 -0.707107 -0.500000
v -0.707107 -0.707107 0.000000
v -0.500000 -0.707107 0.500000
v 0.000000 -1.000000 0.000000
vt 0.500000 0.000000
vt 0.000000 0.250000
vt 0.125000 0.250000
vt 0.250000 0.250000
vt 0.375000 0.250000
vt 0.500000 0.250000
vt 0.625000 0.250000
vt 0.750000 0.250000
vt 0.875000 0.250000
vt 0.000000 0.500000
vt 0.125000 0.500000
vt 0.250000 0.500000
vt 0.375000 0.500000
vt 0.500000 0.500000
vt 0.625000 0.500000
vt 0.750000 0.500000
vt 0.875000 0.500000
vt 0.000000 0.750000
vt 0.125000 0.750000
vt 0.250000 0.750000
vt 0.375000 0.750000
vt 0.500000 0.750000
vt 0.625000 0.750000
vt 0.750000 0.750000
vt 0.875000 0.750000
vt 0.500000 1.000000
vn 0.000000 1.000000 0.000000
vn 0.000000 0.707107 0.707107
vn 0.500000 0.707107 0.500000
vn 0.707107 0.707107 0.000000
vn 0.500000 0.707107 -0.500000
vn 0.000000 0.707107 -0.707107
vn -0.500000 0.707107 -0.500000
vn -0.707107 0.707107 0.000000
vn -0.500000 0.707107 0.500000
vn 0.000000 0.000000 1.000000
vn 0.707107 0.000000 0.707107
vn 1.000000 0.000000 0.000000
vn 0.707107 0.000000 -0.707107
vn 0.000000 0.000000 -1.000000
vn -0.707107 0.000000 -0.707107
vn -1.000000 0.000000 0.000000
vn -0.707107 0.000000 0.707107
vn 0.000000 -0.707107 0.707107
vn 0.500000 -0.707107 0.500000
vn 0.707107 -0.707107 0.000000
vn 0.500000 -0.707107 -0.500000
vn 0.000000 -0.707107 -0.707107
vn -0.500000 -0.707107 -0.500000
vn -0.707107 -0.707107 0.000000
vn -0.500000 -0.707107 0.500000
vn 0.000000 -1.000000 0.000000
usemtl MoonSphereMaterial
f 1/1/1 2/2/2 3/3/3
f 1/1/1 3/3/3 4/4/4
f 1/1/1 4/4/4 5/5/5
f 1/1/1 5/5/5 6/6/6
f 1/1/1 6/6/6 7/7/7
f 1/1/1 7/7/7 8/8/8
f 1/1/1 8/8/8 9/9/9
f 1/1/1 9/9/9 2/2/2
f 2/2/2 10/10/10 11/11/11
f 2/2/2 11/11/11 3/3/3
f 3/3/3 11/11/11 12/12/12
f 3/3/3 12/12/12 4/4/4
f 4/4/4 12/12/12 13/13/13
f 4/4/4 13/13/13 5/5/5
f 5/5/5 13/13/13 14/14/14
f 5/5/5 14/14/14 6/6/6
f 6/6/6 14/14/14 15/15/15
f 6/6/6 15/15/15 7/7/7
f 7/7/7 15/15/15 16/16/16
f 7/7/7 16/16/16 8/8/8
f 8/8/8 16/16/16 17/17/17
f 8/8/8 17/17/17 9/9/9
f 9/9/9 17/17/17 10/10/10
f 9/9/9 10/10/10 2/2/2
f 10/10/10 18/18/18 19/19/19
f 10/10/10 19/19/19 11/11/11
f 11/11/11 19/19/19 20/20/20
f 11/11/11 20/20/20 12/12/12
f 12/12/12 20/20/20 21/21/21
f 12/12/12 21/21/21 13/13/13
f 13/13/13 21/21/21 22/22/22
f 13/13/13 22/22/22 14/14/14
f 14/14/14 22/22/22 23/23/23
f 14/14/14 23/23/23 15/15/15
f 15/15/15 23/23/23 24/24/24
f 15/15/15 24/24/24 16/16/16
f 16/16/16 24/24/24 25/25/25
f 16/16/16 25/25/25 17/17/17
f 17/17/17 25/25/25 18/18/18
f 17/17/17 18/18/18 10/10/10
f 26/26/26 19/19/19 18/18/18
f 26/26/26 20/20/20 19/19/19
f 26/26/26 21/21/21 20/20/20
f 26/26/26 22/22/22 21/21/21
f 26/26/26 23/23/23 22/22/22
f 26/26/26 24/24/24 23/23/23
f 26/26/26 25/25/25 24/24/24
f 26/26/26 18/18/18 25/25/25
